<svg width="20" height="20" viewBox="0 0 20 20" fill="none" xmlns="http://www.w3.org/2000/svg">
<path opacity="0.2" d="M3.125 6.875H16.875V3.75C16.875 3.58424 16.8092 3.42527 16.6919 3.30806C16.5747 3.19085 16.4158 3.125 16.25 3.125H3.75C3.58424 3.125 3.42527 3.19085 3.30806 3.30806C3.19085 3.42527 3.125 3.58424 3.125 3.75V6.875Z" fill="#828282"/>
<path d="M16.25 2.5H14.375V1.875C14.375 1.70924 14.3092 1.55027 14.1919 1.43306C14.0747 1.31585 13.9158 1.25 13.75 1.25C13.5842 1.25 13.4253 1.31585 13.3081 1.43306C13.1908 1.55027 13.125 1.70924 13.125 1.875V2.5H6.875V1.875C6.875 1.70924 6.80915 1.55027 6.69194 1.43306C6.57473 1.31585 6.41576 1.25 6.25 1.25C6.08424 1.25 5.92527 1.31585 5.80806 1.43306C5.69085 1.55027 5.625 1.70924 5.625 1.875V2.5H3.75C3.41848 2.5 3.10054 2.6317 2.86612 2.86612C2.6317 3.10054 2.5 3.41848 2.5 3.75V16.25C2.5 16.5815 2.6317 16.8995 2.86612 17.1339C3.10054 17.3683 3.41848 17.5 3.75 17.5H16.25C16.5815 17.5 16.8995 17.3683 17.1339 17.1339C17.3683 16.8995 17.5 16.5815 17.5 16.25V3.75C17.5 3.41848 17.3683 3.10054 17.1339 2.86612C16.8995 2.6317 16.5815 2.5 16.25 2.5ZM5.625 3.75V4.375C5.625 4.54076 5.69085 4.69973 5.80806 4.81694C5.92527 4.93415 6.08424 5 6.25 5C6.41576 5 6.57473 4.93415 6.69194 4.81694C6.80915 4.69973 6.875 4.54076 6.875 4.375V3.75H13.125V4.375C13.125 4.54076 13.1908 4.69973 13.3081 4.81694C13.4253 4.93415 13.5842 5 13.75 5C13.9158 5 14.0747 4.93415 14.1919 4.81694C14.3092 4.69973 14.375 4.54076 14.375 4.375V3.75H16.25V6.25H3.75V3.75H5.625ZM16.25 16.25H3.75V7.5H16.25V16.25Z" fill="#828282"/>
<path d="M9.17188 11.2578L9.85937 10.3906C9.93278 10.299 9.97887 10.1884 9.99236 10.0718C10.0058 9.9551 9.98618 9.83698 9.93562 9.73097C9.88506 9.62496 9.80565 9.53534 9.70649 9.47238C9.60734 9.40943 9.49245 9.37568 9.375 9.37502H7.1875C7.02174 9.37502 6.86277 9.44087 6.74556 9.55808C6.62835 9.67529 6.5625 9.83426 6.5625 10C6.5625 10.1658 6.62835 10.3248 6.74556 10.442C6.86277 10.5592 7.02174 10.625 7.1875 10.625H8.07813L7.64063 11.1719C7.56722 11.2636 7.52113 11.3741 7.50764 11.4908C7.49416 11.6075 7.51382 11.7256 7.56438 11.8316C7.61494 11.9376 7.69435 12.0272 7.79351 12.0902C7.89266 12.1531 8.00755 12.1869 8.125 12.1875C8.29076 12.1875 8.44973 12.2534 8.56694 12.3706C8.68415 12.4878 8.75 12.6468 8.75 12.8125C8.75 12.9783 8.68415 13.1373 8.56694 13.2545C8.44973 13.3717 8.29076 13.4375 8.125 13.4375C7.95904 13.4368 7.79966 13.3725 7.67969 13.2578C7.6222 13.199 7.55354 13.1523 7.47774 13.1204C7.40194 13.0885 7.32053 13.072 7.23828 13.072C7.15604 13.072 7.07462 13.0885 6.99882 13.1204C6.92302 13.1523 6.85436 13.199 6.79688 13.2578C6.67999 13.375 6.61435 13.5337 6.61435 13.6992C6.61435 13.8647 6.67999 14.0235 6.79688 14.1406C7.05911 14.4038 7.39362 14.5831 7.75794 14.6559C8.12226 14.7286 8.49998 14.6914 8.84316 14.5492C9.18634 14.4069 9.47951 14.1658 9.68548 13.8566C9.89144 13.5474 10.0009 13.184 10 12.8125C10.0005 12.5053 9.92525 12.2026 9.78079 11.9314C9.63633 11.6602 9.42718 11.4288 9.17188 11.2578ZM12.7813 9.43753C12.6765 9.38749 12.5601 9.36688 12.4445 9.37789C12.3289 9.38889 12.2185 9.43111 12.125 9.50002L10.875 10.4375C10.7424 10.537 10.6547 10.685 10.6313 10.8491C10.6078 11.0132 10.6505 11.1799 10.75 11.3125C10.8507 11.4434 10.9986 11.5298 11.1621 11.5531C11.3255 11.5765 11.4917 11.535 11.625 11.4375L11.875 11.25V14.0625C11.875 14.2283 11.9408 14.3873 12.0581 14.5045C12.1753 14.6217 12.3342 14.6875 12.5 14.6875C12.6658 14.6875 12.8247 14.6217 12.9419 14.5045C13.0592 14.3873 13.125 14.2283 13.125 14.0625V10C13.1241 9.88392 13.0916 9.77024 13.031 9.67117C12.9705 9.57209 12.8841 9.49133 12.7813 9.43753Z" fill="#828282"/>
</svg>
